<?xml version="1.0" standalone="no"?>
<!DOCTYPE svg PUBLIC "-//W3C//DTD SVG 20010904//EN"
 "http://www.w3.org/TR/2001/REC-SVG-20010904/DTD/svg10.dtd">
<svg version="1.0" xmlns="http://www.w3.org/2000/svg"
 width="200.000000pt" height="200.000000pt" viewBox="0 0 200.000000 200.000000"
 preserveAspectRatio="xMidYMid meet">
<metadata>
Created by potrace 1.14, written by Peter Selinger 2001-2017
</metadata>
<g transform="translate(0.000000,200.000000) scale(0.100000,-0.100000)"
fill="#000000" stroke="none">
<path d="M843 1790 c-54 -20 -88 -52 -109 -104 l-17 -41 -58 2 c-107 3 -206
-33 -309 -113 -216 -166 -363 -436 -347 -640 5 -72 14 -98 45 -136 22 -25 65
-48 92 -48 17 0 19 -3 11 -18 -14 -27 -7 -132 11 -167 29 -54 80 -96 174 -141
78 -38 106 -46 175 -52 l82 -7 -47 -57 c-25 -31 -46 -59 -46 -62 0 -10 127 3
191 19 138 36 265 132 316 241 16 32 18 33 57 27 185 -32 336 28 415 166 5 7
26 15 47 17 220 17 351 137 362 332 5 87 -14 178 -52 252 -13 25 -31 61 -41
80 -58 111 -150 210 -249 264 -116 65 -295 117 -413 120 -37 1 -59 8 -75 23
-56 50 -147 69 -215 43z"/>
<path d="M1108 396 c-19 -14 -23 -52 -9 -74 4 -8 19 -19 32 -26 13 -6 25 -20
27 -30 3 -15 -1 -18 -20 -14 -12 3 -31 9 -40 13 -13 5 -15 2 -11 -15 16 -60
120 -37 108 24 -2 12 -4 24 -4 28 -1 3 -17 15 -37 27 -39 24 -37 46 5 38 22
-5 27 -2 27 14 0 10 -3 19 -6 20 -3 0 -16 2 -30 5 -14 2 -33 -3 -42 -10z"/>
<path d="M1245 401 c-11 -11 -4 -29 14 -34 15 -4 18 -14 18 -69 0 -69 6 -90
26 -82 8 3 12 28 12 75 0 66 1 72 24 80 19 8 22 12 12 22 -11 11 -97 18 -106
8z"/>
<path d="M1409 348 c-2 -113 7 -132 61 -130 46 1 59 25 60 108 0 68 -7 84 -36
84 -2 0 -4 -33 -4 -74 0 -75 -6 -91 -32 -81 -9 4 -13 25 -12 73 1 61 -7 81
-28 82 -5 0 -9 -28 -9 -62z"/>
<path d="M1603 401 c-14 -9 -12 -179 3 -185 21 -8 85 12 99 31 19 25 14 116
-8 137 -17 17 -78 28 -94 17z m65 -43 c7 -7 12 -28 12 -48 0 -37 -14 -60 -37
-60 -9 0 -13 17 -13 60 0 61 11 75 38 48z"/>
<path d="M1781 314 c0 -83 2 -92 20 -97 18 -5 19 0 18 92 -1 87 -3 97 -19 97
-17 0 -19 -9 -19 -92z"/>
<path d="M1913 403 c-27 -5 -35 -25 -38 -90 -2 -43 2 -58 20 -77 23 -25 31
-26 72 -12 55 18 35 190 -22 184 -5 0 -20 -3 -32 -5z m45 -54 c19 -51 -14
-127 -39 -88 -10 16 -12 93 -2 102 13 14 34 7 41 -14z"/>
</g>
</svg>
